<svg xmlns="http://www.w3.org/2000/svg" xmlns:xlink="http://www.w3.org/1999/xlink" xmlns:lucid="lucid" width="720" height="1400"><g transform="translate(0 0)" lucid:page-tab-id="0_0"><path d="M380 40c0 11.05-8.95 20-20 20s-20-8.95-20-20 8.95-20 20-20 20 8.95 20 20z" stroke="#000" stroke-width="2"/><path d="M288.2 99c-4.53 0-8.2 3.67-8.2 8.2v24.6c0 4.53 3.67 8.2 8.2 8.2h143.6c4.53 0 8.2-3.67 8.2-8.2v-24.6c0-4.53-3.67-8.2-8.2-8.2z" stroke="#000" stroke-width="2" fill="#fff"/><use xlink:href="#a" transform="matrix(1,0,0,1,288,106.9993762921772) translate(16.074999999999996 16.6)"/><use xlink:href="#b" transform="matrix(1,0,0,1,288,106.9993762921772) translate(72.975 16.6)"/><path d="M208.2 180c-4.53 0-8.2 3.67-8.2 8.2v24.6c0 4.53 3.67 8.2 8.2 8.2h303.6c4.53 0 8.2-3.67 8.2-8.2v-24.6c0-4.53-3.67-8.2-8.2-8.2z" stroke="#000" stroke-width="2" fill="#fff"/><use xlink:href="#c" transform="matrix(1,0,0,1,208,188.00000000000003) translate(47.175 16.6)"/><use xlink:href="#d" transform="matrix(1,0,0,1,208,188.00000000000003) translate(119.075 16.6)"/><path d="M360 142v18.5" stroke="#000" stroke-width="2" fill="none"/><path d="M361 142.03h-2V141h2z"/><path d="M360 175.76l-4.64-14.26h9.28z" stroke="#000" stroke-width="2"/><path d="M20 260h425v20l-10 10H20z" fill="#fff"/><path d="M445 260v20l-10 10H20" stroke="#000" stroke-width="2" fill="none"/><path d="M20 260h680v360H20z" stroke="#000" stroke-width="2" fill="none"/><use xlink:href="#e" transform="matrix(1,0,0,1,28,260) translate(0 18.6)"/><use xlink:href="#f" transform="matrix(1,0,0,1,28,260) translate(31.900000000000002 18.6)"/><use xlink:href="#g" transform="matrix(1,0,0,1,28,260) translate(80.85000000000001 18.6)"/><use xlink:href="#h" transform="matrix(1,0,0,1,28,260) translate(151.75 18.6)"/><use xlink:href="#i" transform="matrix(1,0,0,1,28,260) translate(215.7 18.6)"/><use xlink:href="#j" transform="matrix(1,0,0,1,28,260) translate(234.64999999999998 18.6)"/><use xlink:href="#k" transform="matrix(1,0,0,1,28,260) translate(264.65 18.6)"/><path d="M228 320c-4.42 0-8 3.58-8 8v24c0 4.42 3.58 8 8 8h264c4.42 0 8-3.58 8-8v-24c0-4.42-3.58-8-8-8z" stroke="#000" stroke-width="2" fill="#fff"/><use xlink:href="#c" transform="matrix(1,0,0,1,228,328) translate(15.100000000000009 15.6)"/><use xlink:href="#l" transform="matrix(1,0,0,1,228,328) translate(87.00000000000001 15.6)"/><path d="M360 62v17.5" stroke="#000" stroke-width="2" fill="none"/><path d="M359.96 61l1.04-.03v1.06h-2v-1.15z"/><path d="M360 94.76l-4.64-14.26h9.28z" stroke="#000" stroke-width="2"/><path d="M360 240.5V223" stroke="#000" stroke-width="2" fill="none"/><path d="M360 255.76l-4.64-14.26h9.28z" stroke="#000" stroke-width="2"/><path d="M361 223.03h-2V222h2z"/><path d="M360 362v18.5" stroke="#000" stroke-width="2" fill="none"/><path d="M361 362.03h-2V361h2z"/><path d="M360 395.76l-4.64-14.26h9.28z" stroke="#000" stroke-width="2"/><path d="M360 442v18.5" stroke="#000" stroke-width="2" fill="none"/><path d="M361 442.03h-2V441h2z"/><path d="M360 475.76l-4.64-14.26h9.28z" stroke="#000" stroke-width="2"/><path d="M128 400c-4.42 0-8 3.58-8 8v24c0 4.42 3.58 8 8 8h464c4.42 0 8-3.58 8-8v-24c0-4.42-3.58-8-8-8z" stroke="#000" stroke-width="2" fill="#fff"/><use xlink:href="#m" transform="matrix(1,0,0,1,128,408) translate(0.2750000000000057 15.6)"/><use xlink:href="#n" transform="matrix(1,0,0,1,128,408) translate(106.12500000000001 15.6)"/><use xlink:href="#o" transform="matrix(1,0,0,1,128,408) translate(131.12500000000003 15.6)"/><use xlink:href="#p" transform="matrix(1,0,0,1,128,408) translate(184.07500000000002 15.6)"/><use xlink:href="#q" transform="matrix(1,0,0,1,128,408) translate(204.07500000000002 15.6)"/><use xlink:href="#r" transform="matrix(1,0,0,1,128,408) translate(219.07500000000002 15.6)"/><use xlink:href="#s" transform="matrix(1,0,0,1,128,408) translate(393.775 15.6)"/><path d="M128 480c-4.42 0-8 3.58-8 8v24c0 4.42 3.58 8 8 8h464c4.42 0 8-3.58 8-8v-24c0-4.42-3.58-8-8-8z" stroke="#000" stroke-width="2" fill="#c7e8ac"/><use xlink:href="#t" transform="matrix(1,0,0,1,128,488) translate(58.30000000000001 15.6)"/><use xlink:href="#u" transform="matrix(1,0,0,1,128,488) translate(118.10000000000002 15.6)"/><use xlink:href="#v" transform="matrix(1,0,0,1,128,488) translate(148.10000000000002 15.6)"/><use xlink:href="#p" transform="matrix(1,0,0,1,128,488) translate(307.75 15.6)"/><use xlink:href="#u" transform="matrix(1,0,0,1,128,488) translate(327.75 15.6)"/><use xlink:href="#w" transform="matrix(1,0,0,1,128,488) translate(357.75 15.6)"/><path d="M128 560c-4.42 0-8 3.58-8 8v24c0 4.42 3.58 8 8 8h464c4.42 0 8-3.58 8-8v-24c0-4.42-3.58-8-8-8z" stroke="#000" stroke-width="2" fill="#c7e8ac"/><use xlink:href="#t" transform="matrix(1,0,0,1,128,568) translate(52.775000000000006 15.6)"/><use xlink:href="#u" transform="matrix(1,0,0,1,128,568) translate(112.57500000000002 15.6)"/><use xlink:href="#x" transform="matrix(1,0,0,1,128,568) translate(142.57500000000002 15.6)"/><use xlink:href="#p" transform="matrix(1,0,0,1,128,568) translate(313.275 15.6)"/><use xlink:href="#u" transform="matrix(1,0,0,1,128,568) translate(333.275 15.6)"/><use xlink:href="#w" transform="matrix(1,0,0,1,128,568) translate(363.275 15.6)"/><path d="M360 522v18.5" stroke="#000" stroke-width="2" fill="none"/><path d="M361 522.03h-2V521h2z"/><path d="M360 555.76l-4.64-14.26h9.28z" stroke="#000" stroke-width="2"/><path d="M208 660c-4.42 0-8 3.58-8 8v24c0 4.42 3.58 8 8 8h304c4.42 0 8-3.58 8-8v-24c0-4.42-3.58-8-8-8z" stroke="#000" stroke-width="2" fill="#fff"/><use xlink:href="#c" transform="matrix(1,0,0,1,208,668) translate(0.20000000000001705 15.6)"/><use xlink:href="#u" transform="matrix(1,0,0,1,208,668) translate(72.10000000000002 15.6)"/><use xlink:href="#y" transform="matrix(1,0,0,1,208,668) translate(102.10000000000002 15.6)"/><use xlink:href="#z" transform="matrix(1,0,0,1,208,668) translate(218.95000000000002 15.6)"/><use xlink:href="#A" transform="matrix(1,0,0,1,208,668) translate(271.9 15.6)"/><path d="M360 622v18.5" stroke="#000" stroke-width="2" fill="none"/><path d="M361 622.03h-2V621h2z"/><path d="M360 655.76l-4.64-14.26h9.28z" stroke="#000" stroke-width="2"/><path d="M20 740h425v20l-10 10H20z" fill="#fff"/><path d="M445 740v20l-10 10H20" stroke="#000" stroke-width="2" fill="none"/><path d="M20 740h680v460H20z" stroke="#000" stroke-width="2" fill="none"/><use xlink:href="#e" transform="matrix(1,0,0,1,28,740) translate(0 18.6)"/><use xlink:href="#f" transform="matrix(1,0,0,1,28,740) translate(31.900000000000002 18.6)"/><use xlink:href="#g" transform="matrix(1,0,0,1,28,740) translate(80.85000000000001 18.6)"/><use xlink:href="#h" transform="matrix(1,0,0,1,28,740) translate(151.75 18.6)"/><use xlink:href="#i" transform="matrix(1,0,0,1,28,740) translate(215.7 18.6)"/><use xlink:href="#j" transform="matrix(1,0,0,1,28,740) translate(234.64999999999998 18.6)"/><use xlink:href="#k" transform="matrix(1,0,0,1,28,740) translate(264.65 18.6)"/><path d="M360 720.5V702" stroke="#000" stroke-width="2" fill="none"/><path d="M360 735.76l-4.64-14.26h9.28z" stroke="#000" stroke-width="2"/><path d="M361 702.03h-2V701h2z"/><path d="M128 800c-4.42 0-8 3.58-8 8v24c0 4.42 3.58 8 8 8h464c4.42 0 8-3.58 8-8v-24c0-4.42-3.58-8-8-8z" stroke="#000" stroke-width="2" fill="#fff"/><g><use xlink:href="#m" transform="matrix(1,0,0,1,128,808) translate(15.75 15.6)"/><use xlink:href="#n" transform="matrix(1,0,0,1,128,808) translate(121.60000000000001 15.6)"/><use xlink:href="#o" transform="matrix(1,0,0,1,128,808) translate(146.60000000000002 15.6)"/><use xlink:href="#p" transform="matrix(1,0,0,1,128,808) translate(199.55 15.6)"/><use xlink:href="#q" transform="matrix(1,0,0,1,128,808) translate(219.55 15.6)"/><use xlink:href="#B" transform="matrix(1,0,0,1,128,808) translate(234.55 15.6)"/><use xlink:href="#s" transform="matrix(1,0,0,1,128,808) translate(378.3 15.6)"/></g><path d="M188 880c-4.42 0-8 3.58-8 8v24c0 4.42 3.58 8 8 8h344c4.42 0 8-3.58 8-8v-24c0-4.42-3.58-8-8-8z" stroke="#000" stroke-width="2" fill="#c7e8ac"/><g><use xlink:href="#t" transform="matrix(1,0,0,1,188,888) translate(4.775000000000006 15.6)"/><use xlink:href="#u" transform="matrix(1,0,0,1,188,888) translate(64.57500000000002 15.6)"/><use xlink:href="#C" transform="matrix(1,0,0,1,188,888) translate(94.57500000000002 15.6)"/><use xlink:href="#p" transform="matrix(1,0,0,1,188,888) translate(241.275 15.6)"/><use xlink:href="#u" transform="matrix(1,0,0,1,188,888) translate(261.275 15.6)"/><use xlink:href="#w" transform="matrix(1,0,0,1,188,888) translate(291.275 15.6)"/></g><path d="M360 842v18.5" stroke="#000" stroke-width="2" fill="none"/><path d="M361 842.03h-2V841h2z"/><path d="M360 875.76l-4.64-14.26h9.28z" stroke="#000" stroke-width="2"/><path d="M128 960c-4.42 0-8 3.58-8 8v24c0 4.42 3.58 8 8 8h464c4.42 0 8-3.58 8-8v-24c0-4.42-3.58-8-8-8z" stroke="#000" stroke-width="2" fill="#fff"/><g><use xlink:href="#D" transform="matrix(1,0,0,1,128,968) translate(3.3249999999999886 15.6)"/><use xlink:href="#E" transform="matrix(1,0,0,1,128,968) translate(55.07499999999999 15.6)"/><use xlink:href="#u" transform="matrix(1,0,0,1,128,968) translate(85.07499999999999 15.6)"/><use xlink:href="#F" transform="matrix(1,0,0,1,128,968) translate(115.07499999999999 15.6)"/><use xlink:href="#G" transform="matrix(1,0,0,1,128,968) translate(202.975 15.6)"/><use xlink:href="#u" transform="matrix(1,0,0,1,128,968) translate(221.92499999999998 15.6)"/><use xlink:href="#H" transform="matrix(1,0,0,1,128,968) translate(251.92499999999998 15.6)"/><use xlink:href="#I" transform="matrix(1,0,0,1,128,968) translate(316.875 15.6)"/><use xlink:href="#J" transform="matrix(1,0,0,1,128,968) translate(403.725 15.6)"/></g><path d="M72 1040c-6.63 0-12 5.37-12 12v36c0 6.63 5.37 12 12 12h576c6.63 0 12-5.37 12-12v-36c0-6.63-5.37-12-12-12z" stroke="#000" stroke-width="2" fill="#fff"/><g><use xlink:href="#D" transform="matrix(1,0,0,1,68,1048) translate(8.775000000000034 14.799999999999999)"/><use xlink:href="#E" transform="matrix(1,0,0,1,68,1048) translate(60.525000000000034 14.799999999999999)"/><use xlink:href="#u" transform="matrix(1,0,0,1,68,1048) translate(90.52500000000003 14.799999999999999)"/><use xlink:href="#K" transform="matrix(1,0,0,1,68,1048) translate(120.52500000000003 14.799999999999999)"/><use xlink:href="#L" transform="matrix(1,0,0,1,68,1048) translate(163.47500000000002 14.799999999999999)"/><use xlink:href="#M" transform="matrix(1,0,0,1,68,1048) translate(198.47500000000002 14.799999999999999)"/><use xlink:href="#u" transform="matrix(1,0,0,1,68,1048) translate(232.425 14.799999999999999)"/><use xlink:href="#N" transform="matrix(1,0,0,1,68,1048) translate(262.425 14.799999999999999)"/><use xlink:href="#L" transform="matrix(1,0,0,1,68,1048) translate(350.375 14.799999999999999)"/><use xlink:href="#O" transform="matrix(1,0,0,1,68,1048) translate(385.375 14.799999999999999)"/><use xlink:href="#p" transform="matrix(1,0,0,1,68,1048) translate(431.325 14.799999999999999)"/><use xlink:href="#u" transform="matrix(1,0,0,1,68,1048) translate(451.325 14.799999999999999)"/><use xlink:href="#P" transform="matrix(1,0,0,1,68,1048) translate(481.325 14.799999999999999)"/><use xlink:href="#Q" transform="matrix(1,0,0,1,68,1048) translate(122.67499999999998 36.4)"/><use xlink:href="#L" transform="matrix(1,0,0,1,68,1048) translate(205.625 36.4)"/><use xlink:href="#R" transform="matrix(1,0,0,1,68,1048) translate(240.625 36.4)"/><use xlink:href="#I" transform="matrix(1,0,0,1,68,1048) translate(317.525 36.4)"/><use xlink:href="#J" transform="matrix(1,0,0,1,68,1048) translate(404.375 36.4)"/></g><path d="M188 1140c-4.42 0-8 3.58-8 8v24c0 4.42 3.58 8 8 8h344c4.42 0 8-3.58 8-8v-24c0-4.42-3.58-8-8-8z" stroke="#000" stroke-width="2" fill="#fff"/><g><use xlink:href="#S" transform="matrix(1,0,0,1,188,1148) translate(4.175000000000011 15.6)"/><use xlink:href="#u" transform="matrix(1,0,0,1,188,1148) translate(77.02500000000002 15.6)"/><use xlink:href="#T" transform="matrix(1,0,0,1,188,1148) translate(107.02500000000002 15.6)"/><use xlink:href="#U" transform="matrix(1,0,0,1,188,1148) translate(256.925 15.6)"/></g><path d="M360 922v18.5" stroke="#000" stroke-width="2" fill="none"/><path d="M361 922.03h-2V921h2z"/><path d="M360 955.76l-4.64-14.26h9.28z" stroke="#000" stroke-width="2"/><path d="M360 1002v18.5" stroke="#000" stroke-width="2" fill="none"/><path d="M361 1002.03h-2V1001h2z"/><path d="M360 1035.76l-4.64-14.26h9.28z" stroke="#000" stroke-width="2"/><path d="M360 1102v18.5" stroke="#000" stroke-width="2" fill="none"/><path d="M361 1102.03h-2V1101h2z"/><path d="M360 1135.76l-4.64-14.26h9.28z" stroke="#000" stroke-width="2"/><path d="M192 1240c-6.63 0-12 5.37-12 12v36c0 6.63 5.37 12 12 12h336c6.63 0 12-5.37 12-12v-36c0-6.63-5.37-12-12-12z" stroke="#000" stroke-width="2" fill="#fff"/><g><use xlink:href="#S" transform="matrix(1,0,0,1,188,1248) translate(3.2750000000000057 14.799999999999999)"/><use xlink:href="#u" transform="matrix(1,0,0,1,188,1248) translate(76.12500000000001 14.799999999999999)"/><use xlink:href="#V" transform="matrix(1,0,0,1,188,1248) translate(106.12500000000001 14.799999999999999)"/><use xlink:href="#W" transform="matrix(1,0,0,1,188,1248) translate(148.07500000000002 14.799999999999999)"/><use xlink:href="#L" transform="matrix(1,0,0,1,188,1248) translate(208.97500000000002 14.799999999999999)"/><use xlink:href="#X" transform="matrix(1,0,0,1,188,1248) translate(243.97500000000002 14.799999999999999)"/><use xlink:href="#Y" transform="matrix(1,0,0,1,188,1248) translate(300.775 14.799999999999999)"/><use xlink:href="#Z" transform="matrix(1,0,0,1,188,1248) translate(107.07499999999999 36.4)"/><use xlink:href="#u" transform="matrix(1,0,0,1,188,1248) translate(127.07499999999999 36.4)"/><use xlink:href="#aa" transform="matrix(1,0,0,1,188,1248) translate(157.075 36.4)"/></g><path d="M360 1202v18.5" stroke="#000" stroke-width="2" fill="none"/><path d="M361 1202.03h-2V1201h2z"/><path d="M360 1235.76l-4.64-14.26h9.28z" stroke="#000" stroke-width="2"/><path d="M380 1360c0 11.05-8.95 20-20 20s-20-8.95-20-20 8.95-20 20-20 20 8.95 20 20z" stroke="#000" stroke-width="2" fill="#fff"/><path d="M372 1360c0 6.63-5.37 12-12 12s-12-5.37-12-12 5.37-12 12-12 12 5.37 12 12z" stroke="#000" stroke-width="2"/><path d="M360 1302v18.5" stroke="#000" stroke-width="2" fill="none"/><path d="M361 1302.03h-2V1301h2z"/><path d="M360 1335.76l-4.64-14.26h9.28z" stroke="#000" stroke-width="2"/><defs><path d="M30 0v-248h187v28H63v79h144v27H63v87h162V0H30" id="ab"/><path d="M210-169c-67 3-38 105-44 169h-31v-121c0-29-5-50-35-48C34-165 62-65 56 0H25l-1-190h30c1 10-1 24 2 32 10-44 99-50 107 0 11-21 27-35 58-36 85-2 47 119 55 194h-31v-121c0-29-5-49-35-48" id="ac"/><path d="M141-36C126-15 110 5 73 4 37 3 15-17 15-53c-1-64 63-63 125-63 3-35-9-54-41-54-24 1-41 7-42 31l-33-3c5-37 33-52 76-52 45 0 72 20 72 64v82c-1 20 7 32 28 27v20c-31 9-61-2-59-35zM48-53c0 20 12 33 32 33 41-3 63-29 60-74-43 2-92-5-92 41" id="ad"/><g id="a"><use transform="matrix(0.05,0,0,0.05,0,0)" xlink:href="#ab"/><use transform="matrix(0.05,0,0,0.05,12,0)" xlink:href="#ac"/><use transform="matrix(0.05,0,0,0.05,26.950000000000003,0)" xlink:href="#ac"/><use transform="matrix(0.05,0,0,0.05,41.900000000000006,0)" xlink:href="#ad"/></g><path d="M135-143c-3-34-86-38-87 0 15 53 115 12 119 90S17 21 10-45l28-5c4 36 97 45 98 0-10-56-113-15-118-90-4-57 82-63 122-42 12 7 21 19 24 35" id="ae"/><path d="M59-47c-2 24 18 29 38 22v24C64 9 27 4 27-40v-127H5v-23h24l9-43h21v43h35v23H59v120" id="af"/><path d="M114-163C36-179 61-72 57 0H25l-1-190h30c1 12-1 29 2 39 6-27 23-49 58-41v29" id="ag"/><path d="M84 4C-5 8 30-112 23-190h32v120c0 31 7 50 39 49 72-2 45-101 50-169h31l1 190h-30c-1-10 1-25-2-33-11 22-28 36-60 37" id="ah"/><path d="M115-194c55 1 70 41 70 98S169 2 115 4C84 4 66-9 55-30l1 105H24l-1-265h31l2 30c10-21 28-34 59-34zm-8 174c40 0 45-34 45-75s-6-73-45-74c-42 0-51 32-51 76 0 43 10 73 51 73" id="ai"/><g id="b"><use transform="matrix(0.05,0,0,0.05,0,0)" xlink:href="#ae"/><use transform="matrix(0.05,0,0,0.05,9,0)" xlink:href="#af"/><use transform="matrix(0.05,0,0,0.05,14,0)" xlink:href="#ad"/><use transform="matrix(0.05,0,0,0.05,24,0)" xlink:href="#ag"/><use transform="matrix(0.05,0,0,0.05,29.950000000000003,0)" xlink:href="#af"/><use transform="matrix(0.05,0,0,0.05,34.95,0)" xlink:href="#ah"/><use transform="matrix(0.05,0,0,0.05,44.95,0)" xlink:href="#ai"/></g><path d="M233-177c-1 41-23 64-60 70L243 0h-38l-65-103H63V0H30v-248c88 3 205-21 203 71zM63-129c60-2 137 13 137-47 0-61-80-42-137-45v92" id="aj"/><path d="M100-194c63 0 86 42 84 106H49c0 40 14 67 53 68 26 1 43-12 49-29l28 8c-11 28-37 45-77 45C44 4 14-33 15-96c1-61 26-98 85-98zm52 81c6-60-76-77-97-28-3 7-6 17-6 28h103" id="ak"/><path d="M85-194c31 0 48 13 60 33l-1-100h32l1 261h-30c-2-10 0-23-3-31C134-8 116 4 85 4 32 4 16-35 15-94c0-66 23-100 70-100zm9 24c-40 0-46 34-46 75 0 40 6 74 45 74 42 0 51-32 51-76 0-42-9-74-50-73" id="al"/><path d="M24-231v-30h32v30H24zM24 0v-190h32V0H24" id="am"/><path d="M117-194c89-4 53 116 60 194h-32v-121c0-31-8-49-39-48C34-167 62-67 57 0H25l-1-190h30c1 10-1 24 2 32 11-22 29-35 61-36" id="an"/><path d="M177-190C167-65 218 103 67 71c-23-6-38-20-44-43l32-5c15 47 100 32 89-28v-30C133-14 115 1 83 1 29 1 15-40 15-95c0-56 16-97 71-98 29-1 48 16 59 35 1-10 0-23 2-32h30zM94-22c36 0 50-32 50-73 0-42-14-75-50-75-39 0-46 34-46 75s6 73 46 73" id="ao"/><g id="c"><use transform="matrix(0.05,0,0,0.05,0,0)" xlink:href="#aj"/><use transform="matrix(0.05,0,0,0.05,12.950000000000001,0)" xlink:href="#ak"/><use transform="matrix(0.05,0,0,0.05,22.950000000000003,0)" xlink:href="#ad"/><use transform="matrix(0.05,0,0,0.05,32.95,0)" xlink:href="#al"/><use transform="matrix(0.05,0,0,0.05,42.95,0)" xlink:href="#am"/><use transform="matrix(0.05,0,0,0.05,46.900000000000006,0)" xlink:href="#an"/><use transform="matrix(0.05,0,0,0.05,56.900000000000006,0)" xlink:href="#ao"/></g><path d="M24 0v-261h32V0H24" id="ap"/><path d="M100-194c62-1 85 37 85 99 1 63-27 99-86 99S16-35 15-95c0-66 28-99 85-99zM99-20c44 1 53-31 53-75 0-43-8-75-51-75s-53 32-53 75 10 74 51 75" id="aq"/><path d="M115-194c53 0 69 39 70 98 0 66-23 100-70 100C84 3 66-7 56-30L54 0H23l1-261h32v101c10-23 28-34 59-34zm-8 174c40 0 45-34 45-75 0-40-5-75-45-74-42 0-51 32-51 76 0 43 10 73 51 73" id="ar"/><path d="M212-179c-10-28-35-45-73-45-59 0-87 40-87 99 0 60 29 101 89 101 43 0 62-24 78-52l27 14C228-24 195 4 139 4 59 4 22-46 18-125c-6-104 99-153 187-111 19 9 31 26 39 46" id="as"/><path d="M101-234c-31-9-42 10-38 44h38v23H63V0H32v-167H5v-23h27c-7-52 17-82 69-68v24" id="at"/><path d="M33 0v-38h34V0H33" id="au"/><path d="M24-231v-30h32v30H24zM-9 49c24 4 33-6 33-30v-209h32V24c2 40-23 58-65 49V49" id="av"/><g id="d"><use transform="matrix(0.05,0,0,0.05,0,0)" xlink:href="#ao"/><use transform="matrix(0.05,0,0,0.05,10,0)" xlink:href="#ap"/><use transform="matrix(0.05,0,0,0.05,13.949999999999998,0)" xlink:href="#aq"/><use transform="matrix(0.05,0,0,0.05,23.95,0)" xlink:href="#ar"/><use transform="matrix(0.05,0,0,0.05,33.95,0)" xlink:href="#ad"/><use transform="matrix(0.05,0,0,0.05,43.95,0)" xlink:href="#ap"/><use transform="matrix(0.05,0,0,0.05,47.900000000000006,0)" xlink:href="#as"/><use transform="matrix(0.05,0,0,0.05,60.85,0)" xlink:href="#aq"/><use transform="matrix(0.05,0,0,0.05,70.85000000000001,0)" xlink:href="#an"/><use transform="matrix(0.05,0,0,0.05,80.85000000000001,0)" xlink:href="#at"/><use transform="matrix(0.05,0,0,0.05,85.85000000000001,0)" xlink:href="#am"/><use transform="matrix(0.05,0,0,0.05,89.80000000000001,0)" xlink:href="#ao"/><use transform="matrix(0.05,0,0,0.05,99.80000000000001,0)" xlink:href="#au"/><use transform="matrix(0.05,0,0,0.05,104.80000000000001,0)" xlink:href="#av"/><use transform="matrix(0.05,0,0,0.05,108.75,0)" xlink:href="#ae"/><use transform="matrix(0.05,0,0,0.05,117.75,0)" xlink:href="#aq"/><use transform="matrix(0.05,0,0,0.05,127.75,0)" xlink:href="#an"/></g><path d="M63-220v92h138v28H63V0H30v-248h175v28H63" id="aw"/><g id="e"><use transform="matrix(0.05,0,0,0.05,0,0)" xlink:href="#aw"/><use transform="matrix(0.05,0,0,0.05,10.950000000000001,0)" xlink:href="#aq"/><use transform="matrix(0.05,0,0,0.05,20.950000000000003,0)" xlink:href="#ag"/></g><path d="M108 0H70L1-190h34L89-25l56-165h34" id="ax"/><path d="M179-190L93 31C79 59 56 82 12 73V49c39 6 53-20 64-50L1-190h34L92-34l54-156h33" id="ay"/><g id="f"><use transform="matrix(0.05,0,0,0.05,0,0)" xlink:href="#ak"/><use transform="matrix(0.05,0,0,0.05,10,0)" xlink:href="#ax"/><use transform="matrix(0.05,0,0,0.05,19,0)" xlink:href="#ak"/><use transform="matrix(0.05,0,0,0.05,29,0)" xlink:href="#ag"/><use transform="matrix(0.05,0,0,0.05,34.95,0)" xlink:href="#ay"/></g><path d="M96-169c-40 0-48 33-48 73s9 75 48 75c24 0 41-14 43-38l32 2c-6 37-31 61-74 61-59 0-76-41-82-99-10-93 101-131 147-64 4 7 5 14 7 22l-32 3c-4-21-16-35-41-35" id="az"/><path d="M33 0v-248h34V0H33" id="aA"/><path d="M30-248c118-7 216 8 213 122C240-48 200 0 122 0H30v-248zM63-27c89 8 146-16 146-99s-60-101-146-95v194" id="aB"/><g id="g"><use transform="matrix(0.05,0,0,0.05,0,0)" xlink:href="#az"/><use transform="matrix(0.05,0,0,0.05,9,0)" xlink:href="#aq"/><use transform="matrix(0.05,0,0,0.05,19,0)" xlink:href="#an"/><use transform="matrix(0.05,0,0,0.05,29,0)" xlink:href="#at"/><use transform="matrix(0.05,0,0,0.05,34,0)" xlink:href="#am"/><use transform="matrix(0.05,0,0,0.05,37.95,0)" xlink:href="#ao"/><use transform="matrix(0.05,0,0,0.05,47.95,0)" xlink:href="#aA"/><use transform="matrix(0.05,0,0,0.05,52.95,0)" xlink:href="#aB"/></g><g id="h"><use transform="matrix(0.05,0,0,0.05,0,0)" xlink:href="#al"/><use transform="matrix(0.05,0,0,0.05,10,0)" xlink:href="#ak"/><use transform="matrix(0.05,0,0,0.05,20,0)" xlink:href="#at"/><use transform="matrix(0.05,0,0,0.05,25,0)" xlink:href="#am"/><use transform="matrix(0.05,0,0,0.05,28.950000000000003,0)" xlink:href="#an"/><use transform="matrix(0.05,0,0,0.05,38.95,0)" xlink:href="#ak"/><use transform="matrix(0.05,0,0,0.05,48.95,0)" xlink:href="#al"/></g><g id="i"><use transform="matrix(0.05,0,0,0.05,0,0)" xlink:href="#am"/><use transform="matrix(0.05,0,0,0.05,3.95,0)" xlink:href="#an"/></g><path d="M106-169C34-169 62-67 57 0H25v-261h32l-1 103c12-21 28-36 61-36 89 0 53 116 60 194h-32v-121c2-32-8-49-39-48" id="aC"/><g id="j"><use transform="matrix(0.05,0,0,0.05,0,0)" xlink:href="#af"/><use transform="matrix(0.05,0,0,0.05,5,0)" xlink:href="#aC"/><use transform="matrix(0.05,0,0,0.05,15,0)" xlink:href="#ak"/></g><g id="k"><use transform="matrix(0.05,0,0,0.05,0,0)" xlink:href="#ao"/><use transform="matrix(0.05,0,0,0.05,10,0)" xlink:href="#ap"/><use transform="matrix(0.05,0,0,0.05,13.949999999999998,0)" xlink:href="#aq"/><use transform="matrix(0.05,0,0,0.05,23.95,0)" xlink:href="#ar"/><use transform="matrix(0.05,0,0,0.05,33.95,0)" xlink:href="#ad"/><use transform="matrix(0.05,0,0,0.05,43.95,0)" xlink:href="#ap"/><use transform="matrix(0.05,0,0,0.05,47.900000000000006,0)" xlink:href="#as"/><use transform="matrix(0.05,0,0,0.05,60.85,0)" xlink:href="#aq"/><use transform="matrix(0.05,0,0,0.05,70.85000000000001,0)" xlink:href="#an"/><use transform="matrix(0.05,0,0,0.05,80.85000000000001,0)" xlink:href="#at"/><use transform="matrix(0.05,0,0,0.05,85.85000000000001,0)" xlink:href="#am"/><use transform="matrix(0.05,0,0,0.05,89.80000000000001,0)" xlink:href="#ao"/><use transform="matrix(0.05,0,0,0.05,99.80000000000001,0)" xlink:href="#au"/><use transform="matrix(0.05,0,0,0.05,104.80000000000001,0)" xlink:href="#av"/><use transform="matrix(0.05,0,0,0.05,108.75,0)" xlink:href="#ae"/><use transform="matrix(0.05,0,0,0.05,117.75,0)" xlink:href="#aq"/><use transform="matrix(0.05,0,0,0.05,127.75,0)" xlink:href="#an"/></g><path d="M185-189c-5-48-123-54-124 2 14 75 158 14 163 119 3 78-121 87-175 55-17-10-28-26-33-46l33-7c5 56 141 63 141-1 0-78-155-14-162-118-5-82 145-84 179-34 5 7 8 16 11 25" id="aD"/><g id="l"><use transform="matrix(0.05,0,0,0.05,0,0)" xlink:href="#ad"/><use transform="matrix(0.05,0,0,0.05,10,0)" xlink:href="#al"/><use transform="matrix(0.05,0,0,0.05,20,0)" xlink:href="#al"/><use transform="matrix(0.05,0,0,0.05,30,0)" xlink:href="#ag"/><use transform="matrix(0.05,0,0,0.05,35.95,0)" xlink:href="#ak"/><use transform="matrix(0.05,0,0,0.05,45.95,0)" xlink:href="#ae"/><use transform="matrix(0.05,0,0,0.05,54.95,0)" xlink:href="#ae"/><use transform="matrix(0.05,0,0,0.05,63.95,0)" xlink:href="#aD"/><use transform="matrix(0.05,0,0,0.05,75.95,0)" xlink:href="#ai"/><use transform="matrix(0.05,0,0,0.05,85.95,0)" xlink:href="#ad"/><use transform="matrix(0.05,0,0,0.05,95.95,0)" xlink:href="#az"/><use transform="matrix(0.05,0,0,0.05,104.95,0)" xlink:href="#ak"/><use transform="matrix(0.05,0,0,0.05,114.95,0)" xlink:href="#ae"/><use transform="matrix(0.05,0,0,0.05,123.95,0)" xlink:href="#au"/><use transform="matrix(0.05,0,0,0.05,128.95,0)" xlink:href="#av"/><use transform="matrix(0.05,0,0,0.05,132.89999999999998,0)" xlink:href="#ae"/><use transform="matrix(0.05,0,0,0.05,141.89999999999998,0)" xlink:href="#aq"/><use transform="matrix(0.05,0,0,0.05,151.89999999999998,0)" xlink:href="#an"/></g><g id="m"><use transform="matrix(0.05,0,0,0.05,0,0)" xlink:href="#as"/><use transform="matrix(0.05,0,0,0.05,12.950000000000001,0)" xlink:href="#aq"/><use transform="matrix(0.05,0,0,0.05,22.950000000000003,0)" xlink:href="#an"/><use transform="matrix(0.05,0,0,0.05,32.95,0)" xlink:href="#ae"/><use transform="matrix(0.05,0,0,0.05,41.95,0)" xlink:href="#af"/><use transform="matrix(0.05,0,0,0.05,46.95,0)" xlink:href="#ag"/><use transform="matrix(0.05,0,0,0.05,52.900000000000006,0)" xlink:href="#ah"/><use transform="matrix(0.05,0,0,0.05,62.900000000000006,0)" xlink:href="#az"/><use transform="matrix(0.05,0,0,0.05,71.9,0)" xlink:href="#af"/><use transform="matrix(0.05,0,0,0.05,76.9,0)" xlink:href="#am"/><use transform="matrix(0.05,0,0,0.05,80.85000000000001,0)" xlink:href="#an"/><use transform="matrix(0.05,0,0,0.05,90.85000000000001,0)" xlink:href="#ao"/></g><g id="n"><use transform="matrix(0.05,0,0,0.05,0,0)" xlink:href="#ad"/><use transform="matrix(0.05,0,0,0.05,10,0)" xlink:href="#an"/></g><g id="o"><use transform="matrix(0.05,0,0,0.05,0,0)" xlink:href="#aq"/><use transform="matrix(0.05,0,0,0.05,10,0)" xlink:href="#ar"/><use transform="matrix(0.05,0,0,0.05,20,0)" xlink:href="#av"/><use transform="matrix(0.05,0,0,0.05,23.95,0)" xlink:href="#ak"/><use transform="matrix(0.05,0,0,0.05,33.95,0)" xlink:href="#az"/><use transform="matrix(0.05,0,0,0.05,42.95,0)" xlink:href="#af"/></g><g id="p"><use transform="matrix(0.05,0,0,0.05,0,0)" xlink:href="#aq"/><use transform="matrix(0.05,0,0,0.05,10,0)" xlink:href="#at"/></g><use transform="matrix(0.05,0,0,0.05,0,0)" xlink:href="#ad" id="q"/><g id="r"><use transform="matrix(0.05,0,0,0.05,0,0)" xlink:href="#aD"/><use transform="matrix(0.05,0,0,0.05,12,0)" xlink:href="#ai"/><use transform="matrix(0.05,0,0,0.05,22,0)" xlink:href="#ak"/><use transform="matrix(0.05,0,0,0.05,32,0)" xlink:href="#az"/><use transform="matrix(0.05,0,0,0.05,41,0)" xlink:href="#am"/><use transform="matrix(0.05,0,0,0.05,44.95,0)" xlink:href="#at"/><use transform="matrix(0.05,0,0,0.05,49.95,0)" xlink:href="#am"/><use transform="matrix(0.05,0,0,0.05,53.900000000000006,0)" xlink:href="#az"/><use transform="matrix(0.05,0,0,0.05,62.900000000000006,0)" xlink:href="#as"/><use transform="matrix(0.05,0,0,0.05,75.85000000000001,0)" xlink:href="#aq"/><use transform="matrix(0.05,0,0,0.05,85.85000000000001,0)" xlink:href="#an"/><use transform="matrix(0.05,0,0,0.05,95.85000000000001,0)" xlink:href="#at"/><use transform="matrix(0.05,0,0,0.05,100.85000000000001,0)" xlink:href="#am"/><use transform="matrix(0.05,0,0,0.05,104.80000000000001,0)" xlink:href="#ao"/><use transform="matrix(0.05,0,0,0.05,114.80000000000001,0)" xlink:href="#ah"/><use transform="matrix(0.05,0,0,0.05,124.80000000000001,0)" xlink:href="#ag"/><use transform="matrix(0.05,0,0,0.05,130.75,0)" xlink:href="#ad"/><use transform="matrix(0.05,0,0,0.05,140.75,0)" xlink:href="#af"/><use transform="matrix(0.05,0,0,0.05,145.75,0)" xlink:href="#am"/><use transform="matrix(0.05,0,0,0.05,149.7,0)" xlink:href="#aq"/><use transform="matrix(0.05,0,0,0.05,159.7,0)" xlink:href="#an"/></g><g id="s"><use transform="matrix(0.05,0,0,0.05,0,0)" xlink:href="#ae"/><use transform="matrix(0.05,0,0,0.05,9,0)" xlink:href="#ah"/><use transform="matrix(0.05,0,0,0.05,19,0)" xlink:href="#ar"/><use transform="matrix(0.05,0,0,0.05,29,0)" xlink:href="#ap"/><use transform="matrix(0.05,0,0,0.05,32.95,0)" xlink:href="#az"/><use transform="matrix(0.05,0,0,0.05,41.95,0)" xlink:href="#ad"/><use transform="matrix(0.05,0,0,0.05,51.95,0)" xlink:href="#ae"/><use transform="matrix(0.05,0,0,0.05,60.95,0)" xlink:href="#ae"/></g><g id="t"><use transform="matrix(0.05,0,0,0.05,0,0)" xlink:href="#as"/><use transform="matrix(0.05,0,0,0.05,12.950000000000001,0)" xlink:href="#ad"/><use transform="matrix(0.05,0,0,0.05,22.950000000000003,0)" xlink:href="#ap"/><use transform="matrix(0.05,0,0,0.05,26.900000000000002,0)" xlink:href="#ap"/><use transform="matrix(0.05,0,0,0.05,30.85,0)" xlink:href="#am"/><use transform="matrix(0.05,0,0,0.05,34.800000000000004,0)" xlink:href="#an"/><use transform="matrix(0.05,0,0,0.05,44.800000000000004,0)" xlink:href="#ao"/></g><g id="u"><use transform="matrix(0.05,0,0,0.05,0,0)" xlink:href="#af"/><use transform="matrix(0.05,0,0,0.05,5,0)" xlink:href="#aC"/><use transform="matrix(0.05,0,0,0.05,15,0)" xlink:href="#ak"/></g><path d="M87 75C49 33 22-17 22-94c0-76 28-126 65-167h31c-38 41-64 92-64 168S80 34 118 75H87" id="aE"/><path d="M33-261c38 41 65 92 65 168S71 34 33 75H2C39 34 66-17 66-93S39-220 2-261h31" id="aF"/><g id="v"><use transform="matrix(0.05,0,0,0.05,0,0)" xlink:href="#ag"/><use transform="matrix(0.05,0,0,0.05,5.95,0)" xlink:href="#ak"/><use transform="matrix(0.05,0,0,0.05,15.949999999999998,0)" xlink:href="#ad"/><use transform="matrix(0.05,0,0,0.05,25.950000000000003,0)" xlink:href="#al"/><use transform="matrix(0.05,0,0,0.05,35.95,0)" xlink:href="#as"/><use transform="matrix(0.05,0,0,0.05,48.900000000000006,0)" xlink:href="#aq"/><use transform="matrix(0.05,0,0,0.05,58.900000000000006,0)" xlink:href="#an"/><use transform="matrix(0.05,0,0,0.05,68.9,0)" xlink:href="#at"/><use transform="matrix(0.05,0,0,0.05,73.9,0)" xlink:href="#am"/><use transform="matrix(0.05,0,0,0.05,77.85000000000001,0)" xlink:href="#ao"/><use transform="matrix(0.05,0,0,0.05,87.85000000000001,0)" xlink:href="#ah"/><use transform="matrix(0.05,0,0,0.05,97.85000000000001,0)" xlink:href="#ag"/><use transform="matrix(0.05,0,0,0.05,103.80000000000001,0)" xlink:href="#ad"/><use transform="matrix(0.05,0,0,0.05,113.80000000000001,0)" xlink:href="#af"/><use transform="matrix(0.05,0,0,0.05,118.80000000000001,0)" xlink:href="#am"/><use transform="matrix(0.05,0,0,0.05,122.75,0)" xlink:href="#aq"/><use transform="matrix(0.05,0,0,0.05,132.75,0)" xlink:href="#an"/><use transform="matrix(0.05,0,0,0.05,142.75,0)" xlink:href="#aE"/><use transform="matrix(0.05,0,0,0.05,148.7,0)" xlink:href="#aF"/></g><g id="w"><use transform="matrix(0.05,0,0,0.05,0,0)" xlink:href="#aq"/><use transform="matrix(0.05,0,0,0.05,10,0)" xlink:href="#ar"/><use transform="matrix(0.05,0,0,0.05,20,0)" xlink:href="#av"/><use transform="matrix(0.05,0,0,0.05,23.95,0)" xlink:href="#ak"/><use transform="matrix(0.05,0,0,0.05,33.95,0)" xlink:href="#az"/><use transform="matrix(0.05,0,0,0.05,42.95,0)" xlink:href="#af"/></g><path d="M143 0L79-87 56-68V0H24v-261h32v163l83-92h37l-77 82L181 0h-38" id="aG"/><g id="x"><use transform="matrix(0.05,0,0,0.05,0,0)" xlink:href="#az"/><use transform="matrix(0.05,0,0,0.05,9,0)" xlink:href="#aC"/><use transform="matrix(0.05,0,0,0.05,19,0)" xlink:href="#ak"/><use transform="matrix(0.05,0,0,0.05,29,0)" xlink:href="#az"/><use transform="matrix(0.05,0,0,0.05,38,0)" xlink:href="#aG"/><use transform="matrix(0.05,0,0,0.05,47,0)" xlink:href="#as"/><use transform="matrix(0.05,0,0,0.05,59.95,0)" xlink:href="#aq"/><use transform="matrix(0.05,0,0,0.05,69.95,0)" xlink:href="#an"/><use transform="matrix(0.05,0,0,0.05,79.95,0)" xlink:href="#at"/><use transform="matrix(0.05,0,0,0.05,84.95,0)" xlink:href="#am"/><use transform="matrix(0.05,0,0,0.05,88.9,0)" xlink:href="#ao"/><use transform="matrix(0.05,0,0,0.05,98.9,0)" xlink:href="#ah"/><use transform="matrix(0.05,0,0,0.05,108.9,0)" xlink:href="#ag"/><use transform="matrix(0.05,0,0,0.05,114.85000000000001,0)" xlink:href="#ad"/><use transform="matrix(0.05,0,0,0.05,124.85000000000001,0)" xlink:href="#af"/><use transform="matrix(0.05,0,0,0.05,129.85000000000002,0)" xlink:href="#am"/><use transform="matrix(0.05,0,0,0.05,133.8,0)" xlink:href="#aq"/><use transform="matrix(0.05,0,0,0.05,143.8,0)" xlink:href="#an"/><use transform="matrix(0.05,0,0,0.05,153.8,0)" xlink:href="#aE"/><use transform="matrix(0.05,0,0,0.05,159.75,0)" xlink:href="#aF"/></g><g id="y"><use transform="matrix(0.05,0,0,0.05,0,0)" xlink:href="#az"/><use transform="matrix(0.05,0,0,0.05,9,0)" xlink:href="#ad"/><use transform="matrix(0.05,0,0,0.05,19,0)" xlink:href="#af"/><use transform="matrix(0.05,0,0,0.05,24,0)" xlink:href="#ak"/><use transform="matrix(0.05,0,0,0.05,34,0)" xlink:href="#ao"/><use transform="matrix(0.05,0,0,0.05,44,0)" xlink:href="#aq"/><use transform="matrix(0.05,0,0,0.05,54,0)" xlink:href="#ag"/><use transform="matrix(0.05,0,0,0.05,59.95,0)" xlink:href="#am"/><use transform="matrix(0.05,0,0,0.05,63.900000000000006,0)" xlink:href="#ae"/><use transform="matrix(0.05,0,0,0.05,72.9,0)" xlink:href="#ad"/><use transform="matrix(0.05,0,0,0.05,82.9,0)" xlink:href="#af"/><use transform="matrix(0.05,0,0,0.05,87.9,0)" xlink:href="#am"/><use transform="matrix(0.05,0,0,0.05,91.85000000000001,0)" xlink:href="#aq"/><use transform="matrix(0.05,0,0,0.05,101.85000000000001,0)" xlink:href="#an"/></g><g id="z"><use transform="matrix(0.05,0,0,0.05,0,0)" xlink:href="#az"/><use transform="matrix(0.05,0,0,0.05,9,0)" xlink:href="#aq"/><use transform="matrix(0.05,0,0,0.05,19,0)" xlink:href="#an"/><use transform="matrix(0.05,0,0,0.05,29,0)" xlink:href="#at"/><use transform="matrix(0.05,0,0,0.05,34,0)" xlink:href="#am"/><use transform="matrix(0.05,0,0,0.05,37.95,0)" xlink:href="#ao"/></g><g id="A"><use transform="matrix(0.05,0,0,0.05,0,0)" xlink:href="#at"/><use transform="matrix(0.05,0,0,0.05,5,0)" xlink:href="#am"/><use transform="matrix(0.05,0,0,0.05,8.95,0)" xlink:href="#ap"/><use transform="matrix(0.05,0,0,0.05,12.899999999999999,0)" xlink:href="#ak"/><use transform="matrix(0.05,0,0,0.05,22.9,0)" xlink:href="#ae"/></g><path d="M240 0l2-218c-23 76-54 145-80 218h-23L58-218 59 0H30v-248h44l77 211c21-75 51-140 76-211h43V0h-30" id="aH"/><path d="M30-248c87 1 191-15 191 75 0 78-77 80-158 76V0H30v-248zm33 125c57 0 124 11 124-50 0-59-68-47-124-48v98" id="aI"/><g id="B"><use transform="matrix(0.05,0,0,0.05,0,0)" xlink:href="#aH"/><use transform="matrix(0.05,0,0,0.05,14.950000000000001,0)" xlink:href="#ad"/><use transform="matrix(0.05,0,0,0.05,24.950000000000003,0)" xlink:href="#ai"/><use transform="matrix(0.05,0,0,0.05,34.95,0)" xlink:href="#at"/><use transform="matrix(0.05,0,0,0.05,39.95,0)" xlink:href="#am"/><use transform="matrix(0.05,0,0,0.05,43.900000000000006,0)" xlink:href="#ap"/><use transform="matrix(0.05,0,0,0.05,47.85000000000001,0)" xlink:href="#ak"/><use transform="matrix(0.05,0,0,0.05,57.85,0)" xlink:href="#aI"/><use transform="matrix(0.05,0,0,0.05,69.85000000000001,0)" xlink:href="#ag"/><use transform="matrix(0.05,0,0,0.05,75.80000000000001,0)" xlink:href="#aq"/><use transform="matrix(0.05,0,0,0.05,85.80000000000001,0)" xlink:href="#az"/><use transform="matrix(0.05,0,0,0.05,94.80000000000001,0)" xlink:href="#ak"/><use transform="matrix(0.05,0,0,0.05,104.80000000000001,0)" xlink:href="#ae"/><use transform="matrix(0.05,0,0,0.05,113.80000000000001,0)" xlink:href="#ae"/><use transform="matrix(0.05,0,0,0.05,122.80000000000001,0)" xlink:href="#aq"/><use transform="matrix(0.05,0,0,0.05,132.8,0)" xlink:href="#ag"/></g><g id="C"><use transform="matrix(0.05,0,0,0.05,0,0)" xlink:href="#ai"/><use transform="matrix(0.05,0,0,0.05,10,0)" xlink:href="#ag"/><use transform="matrix(0.05,0,0,0.05,15.949999999999998,0)" xlink:href="#aq"/><use transform="matrix(0.05,0,0,0.05,25.950000000000003,0)" xlink:href="#az"/><use transform="matrix(0.05,0,0,0.05,34.95,0)" xlink:href="#ak"/><use transform="matrix(0.05,0,0,0.05,44.95,0)" xlink:href="#ae"/><use transform="matrix(0.05,0,0,0.05,53.95,0)" xlink:href="#ae"/><use transform="matrix(0.05,0,0,0.05,62.95,0)" xlink:href="#aH"/><use transform="matrix(0.05,0,0,0.05,77.9,0)" xlink:href="#ad"/><use transform="matrix(0.05,0,0,0.05,87.9,0)" xlink:href="#ai"/><use transform="matrix(0.05,0,0,0.05,97.9,0)" xlink:href="#at"/><use transform="matrix(0.05,0,0,0.05,102.9,0)" xlink:href="#am"/><use transform="matrix(0.05,0,0,0.05,106.85000000000001,0)" xlink:href="#ap"/><use transform="matrix(0.05,0,0,0.05,110.80000000000001,0)" xlink:href="#ak"/><use transform="matrix(0.05,0,0,0.05,120.80000000000001,0)" xlink:href="#ae"/><use transform="matrix(0.05,0,0,0.05,129.8,0)" xlink:href="#aE"/><use transform="matrix(0.05,0,0,0.05,135.75,0)" xlink:href="#aF"/></g><g id="D"><use transform="matrix(0.05,0,0,0.05,0,0)" xlink:href="#aw"/><use transform="matrix(0.05,0,0,0.05,10.950000000000001,0)" xlink:href="#am"/><use transform="matrix(0.05,0,0,0.05,14.9,0)" xlink:href="#ap"/><use transform="matrix(0.05,0,0,0.05,18.85,0)" xlink:href="#ap"/><use transform="matrix(0.05,0,0,0.05,22.8,0)" xlink:href="#am"/><use transform="matrix(0.05,0,0,0.05,26.75,0)" xlink:href="#an"/><use transform="matrix(0.05,0,0,0.05,36.75,0)" xlink:href="#ao"/></g><g id="E"><use transform="matrix(0.05,0,0,0.05,0,0)" xlink:href="#aq"/><use transform="matrix(0.05,0,0,0.05,10,0)" xlink:href="#ah"/><use transform="matrix(0.05,0,0,0.05,20,0)" xlink:href="#af"/></g><g id="F"><use transform="matrix(0.05,0,0,0.05,0,0)" xlink:href="#az"/><use transform="matrix(0.05,0,0,0.05,9,0)" xlink:href="#ad"/><use transform="matrix(0.05,0,0,0.05,19,0)" xlink:href="#af"/><use transform="matrix(0.05,0,0,0.05,24,0)" xlink:href="#ak"/><use transform="matrix(0.05,0,0,0.05,34,0)" xlink:href="#ao"/><use transform="matrix(0.05,0,0,0.05,44,0)" xlink:href="#aq"/><use transform="matrix(0.05,0,0,0.05,54,0)" xlink:href="#ag"/><use transform="matrix(0.05,0,0,0.05,59.95,0)" xlink:href="#am"/><use transform="matrix(0.05,0,0,0.05,63.900000000000006,0)" xlink:href="#ak"/><use transform="matrix(0.05,0,0,0.05,73.9,0)" xlink:href="#ae"/></g><g id="G"><use transform="matrix(0.05,0,0,0.05,0,0)" xlink:href="#am"/><use transform="matrix(0.05,0,0,0.05,3.95,0)" xlink:href="#an"/></g><g id="H"><use transform="matrix(0.05,0,0,0.05,0,0)" xlink:href="#az"/><use transform="matrix(0.05,0,0,0.05,9,0)" xlink:href="#ag"/><use transform="matrix(0.05,0,0,0.05,14.949999999999998,0)" xlink:href="#ak"/><use transform="matrix(0.05,0,0,0.05,24.95,0)" xlink:href="#ad"/><use transform="matrix(0.05,0,0,0.05,34.95,0)" xlink:href="#af"/><use transform="matrix(0.05,0,0,0.05,39.95,0)" xlink:href="#ak"/><use transform="matrix(0.05,0,0,0.05,49.95,0)" xlink:href="#al"/></g><g id="I"><use transform="matrix(0.05,0,0,0.05,0,0)" xlink:href="#aH"/><use transform="matrix(0.05,0,0,0.05,14.950000000000001,0)" xlink:href="#ak"/><use transform="matrix(0.05,0,0,0.05,24.950000000000003,0)" xlink:href="#ac"/><use transform="matrix(0.05,0,0,0.05,39.900000000000006,0)" xlink:href="#ab"/><use transform="matrix(0.05,0,0,0.05,51.900000000000006,0)" xlink:href="#an"/><use transform="matrix(0.05,0,0,0.05,61.900000000000006,0)" xlink:href="#af"/><use transform="matrix(0.05,0,0,0.05,66.9,0)" xlink:href="#ag"/><use transform="matrix(0.05,0,0,0.05,72.85000000000001,0)" xlink:href="#ay"/></g><g id="J"><use transform="matrix(0.05,0,0,0.05,0,0)" xlink:href="#aq"/><use transform="matrix(0.05,0,0,0.05,10,0)" xlink:href="#ar"/><use transform="matrix(0.05,0,0,0.05,20,0)" xlink:href="#av"/><use transform="matrix(0.05,0,0,0.05,23.95,0)" xlink:href="#ak"/><use transform="matrix(0.05,0,0,0.05,33.95,0)" xlink:href="#az"/><use transform="matrix(0.05,0,0,0.05,42.95,0)" xlink:href="#af"/><use transform="matrix(0.05,0,0,0.05,47.95,0)" xlink:href="#ae"/></g><g id="K"><use transform="matrix(0.05,0,0,0.05,0,0)" xlink:href="#at"/><use transform="matrix(0.05,0,0,0.05,5,0)" xlink:href="#ap"/><use transform="matrix(0.05,0,0,0.05,8.95,0)" xlink:href="#ad"/><use transform="matrix(0.05,0,0,0.05,18.95,0)" xlink:href="#ao"/><use transform="matrix(0.05,0,0,0.05,28.950000000000003,0)" xlink:href="#ae"/></g><g id="L"><use transform="matrix(0.05,0,0,0.05,0,0)" xlink:href="#ad"/><use transform="matrix(0.05,0,0,0.05,10,0)" xlink:href="#an"/><use transform="matrix(0.05,0,0,0.05,20,0)" xlink:href="#al"/></g><g id="M"><use transform="matrix(0.05,0,0,0.05,0,0)" xlink:href="#ak"/><use transform="matrix(0.05,0,0,0.05,10,0)" xlink:href="#al"/><use transform="matrix(0.05,0,0,0.05,20,0)" xlink:href="#am"/><use transform="matrix(0.05,0,0,0.05,23.95,0)" xlink:href="#af"/></g><g id="N"><use transform="matrix(0.05,0,0,0.05,0,0)" xlink:href="#ad"/><use transform="matrix(0.05,0,0,0.05,10,0)" xlink:href="#al"/><use transform="matrix(0.05,0,0,0.05,20,0)" xlink:href="#al"/><use transform="matrix(0.05,0,0,0.05,30,0)" xlink:href="#ag"/><use transform="matrix(0.05,0,0,0.05,35.95,0)" xlink:href="#ak"/><use transform="matrix(0.05,0,0,0.05,45.95,0)" xlink:href="#ae"/><use transform="matrix(0.05,0,0,0.05,54.95,0)" xlink:href="#ae"/><use transform="matrix(0.05,0,0,0.05,63.95,0)" xlink:href="#ak"/><use transform="matrix(0.05,0,0,0.05,73.95,0)" xlink:href="#ae"/></g><path d="M9 0v-24l116-142H16v-24h144v24L44-24h123V0H9" id="aJ"/><g id="O"><use transform="matrix(0.05,0,0,0.05,0,0)" xlink:href="#ae"/><use transform="matrix(0.05,0,0,0.05,9,0)" xlink:href="#am"/><use transform="matrix(0.05,0,0,0.05,12.949999999999998,0)" xlink:href="#aJ"/><use transform="matrix(0.05,0,0,0.05,21.95,0)" xlink:href="#ak"/><use transform="matrix(0.05,0,0,0.05,31.950000000000003,0)" xlink:href="#ae"/></g><path d="M68-38c1 34 0 65-14 84H32c9-13 17-26 17-46H33v-38h35" id="aK"/><g id="P"><use transform="matrix(0.05,0,0,0.05,0,0)" xlink:href="#aq"/><use transform="matrix(0.05,0,0,0.05,10,0)" xlink:href="#ax"/><use transform="matrix(0.05,0,0,0.05,19,0)" xlink:href="#ak"/><use transform="matrix(0.05,0,0,0.05,29,0)" xlink:href="#ag"/><use transform="matrix(0.05,0,0,0.05,34.95,0)" xlink:href="#ap"/><use transform="matrix(0.05,0,0,0.05,38.900000000000006,0)" xlink:href="#ad"/><use transform="matrix(0.05,0,0,0.05,48.900000000000006,0)" xlink:href="#ai"/><use transform="matrix(0.05,0,0,0.05,58.900000000000006,0)" xlink:href="#ai"/><use transform="matrix(0.05,0,0,0.05,68.9,0)" xlink:href="#ak"/><use transform="matrix(0.05,0,0,0.05,78.9,0)" xlink:href="#al"/><use transform="matrix(0.05,0,0,0.05,88.9,0)" xlink:href="#aK"/></g><g id="Q"><use transform="matrix(0.05,0,0,0.05,0,0)" xlink:href="#az"/><use transform="matrix(0.05,0,0,0.05,9,0)" xlink:href="#aq"/><use transform="matrix(0.05,0,0,0.05,19,0)" xlink:href="#an"/><use transform="matrix(0.05,0,0,0.05,29,0)" xlink:href="#af"/><use transform="matrix(0.05,0,0,0.05,34,0)" xlink:href="#ad"/><use transform="matrix(0.05,0,0,0.05,44,0)" xlink:href="#am"/><use transform="matrix(0.05,0,0,0.05,47.95,0)" xlink:href="#an"/><use transform="matrix(0.05,0,0,0.05,57.95,0)" xlink:href="#ak"/><use transform="matrix(0.05,0,0,0.05,67.95,0)" xlink:href="#al"/></g><g id="R"><use transform="matrix(0.05,0,0,0.05,0,0)" xlink:href="#al"/><use transform="matrix(0.05,0,0,0.05,10,0)" xlink:href="#ah"/><use transform="matrix(0.05,0,0,0.05,20,0)" xlink:href="#ai"/><use transform="matrix(0.05,0,0,0.05,30,0)" xlink:href="#ap"/><use transform="matrix(0.05,0,0,0.05,33.95,0)" xlink:href="#am"/><use transform="matrix(0.05,0,0,0.05,37.900000000000006,0)" xlink:href="#az"/><use transform="matrix(0.05,0,0,0.05,46.900000000000006,0)" xlink:href="#ad"/><use transform="matrix(0.05,0,0,0.05,56.900000000000006,0)" xlink:href="#af"/><use transform="matrix(0.05,0,0,0.05,61.900000000000006,0)" xlink:href="#ak"/></g><g id="S"><use transform="matrix(0.05,0,0,0.05,0,0)" xlink:href="#as"/><use transform="matrix(0.05,0,0,0.05,12.950000000000001,0)" xlink:href="#ag"/><use transform="matrix(0.05,0,0,0.05,18.900000000000002,0)" xlink:href="#ak"/><use transform="matrix(0.05,0,0,0.05,28.900000000000002,0)" xlink:href="#ad"/><use transform="matrix(0.05,0,0,0.05,38.900000000000006,0)" xlink:href="#af"/><use transform="matrix(0.05,0,0,0.05,43.900000000000006,0)" xlink:href="#am"/><use transform="matrix(0.05,0,0,0.05,47.85000000000001,0)" xlink:href="#an"/><use transform="matrix(0.05,0,0,0.05,57.85,0)" xlink:href="#ao"/></g><path d="M140-251c81 0 123 46 123 126C263-46 219 4 140 4 59 4 17-45 17-125s42-126 123-126zm0 227c63 0 89-41 89-101s-29-99-89-99c-61 0-89 39-89 99S79-25 140-24" id="aL"/><g id="T"><use transform="matrix(0.05,0,0,0.05,0,0)" xlink:href="#aL"/><use transform="matrix(0.05,0,0,0.05,14,0)" xlink:href="#ar"/><use transform="matrix(0.05,0,0,0.05,24,0)" xlink:href="#av"/><use transform="matrix(0.05,0,0,0.05,27.950000000000003,0)" xlink:href="#ak"/><use transform="matrix(0.05,0,0,0.05,37.95,0)" xlink:href="#az"/><use transform="matrix(0.05,0,0,0.05,46.95,0)" xlink:href="#af"/><use transform="matrix(0.05,0,0,0.05,51.95,0)" xlink:href="#ae"/><use transform="matrix(0.05,0,0,0.05,60.95,0)" xlink:href="#aA"/><use transform="matrix(0.05,0,0,0.05,65.95,0)" xlink:href="#an"/><use transform="matrix(0.05,0,0,0.05,75.95,0)" xlink:href="#aD"/><use transform="matrix(0.05,0,0,0.05,87.95,0)" xlink:href="#ak"/><use transform="matrix(0.05,0,0,0.05,97.95,0)" xlink:href="#az"/><use transform="matrix(0.05,0,0,0.05,106.95,0)" xlink:href="#af"/><use transform="matrix(0.05,0,0,0.05,111.95,0)" xlink:href="#am"/><use transform="matrix(0.05,0,0,0.05,115.9,0)" xlink:href="#aq"/><use transform="matrix(0.05,0,0,0.05,125.9,0)" xlink:href="#an"/><use transform="matrix(0.05,0,0,0.05,135.9,0)" xlink:href="#ae"/></g><g id="U"><use transform="matrix(0.05,0,0,0.05,0,0)" xlink:href="#az"/><use transform="matrix(0.05,0,0,0.05,9,0)" xlink:href="#aq"/><use transform="matrix(0.05,0,0,0.05,19,0)" xlink:href="#an"/><use transform="matrix(0.05,0,0,0.05,29,0)" xlink:href="#af"/><use transform="matrix(0.05,0,0,0.05,34,0)" xlink:href="#ad"/><use transform="matrix(0.05,0,0,0.05,44,0)" xlink:href="#am"/><use transform="matrix(0.05,0,0,0.05,47.95,0)" xlink:href="#an"/><use transform="matrix(0.05,0,0,0.05,57.95,0)" xlink:href="#ak"/><use transform="matrix(0.05,0,0,0.05,67.95,0)" xlink:href="#ag"/><use transform="matrix(0.05,0,0,0.05,73.9,0)" xlink:href="#ae"/></g><path d="M137 0h-34L2-248h35l83 218 83-218h36" id="aM"/><g id="V"><use transform="matrix(0.05,0,0,0.05,0,0)" xlink:href="#as"/><use transform="matrix(0.05,0,0,0.05,12.950000000000001,0)" xlink:href="#aD"/><use transform="matrix(0.05,0,0,0.05,24.950000000000003,0)" xlink:href="#aM"/></g><g id="W"><use transform="matrix(0.05,0,0,0.05,0,0)" xlink:href="#ag"/><use transform="matrix(0.05,0,0,0.05,5.95,0)" xlink:href="#ak"/><use transform="matrix(0.05,0,0,0.05,15.949999999999998,0)" xlink:href="#ai"/><use transform="matrix(0.05,0,0,0.05,25.950000000000003,0)" xlink:href="#aq"/><use transform="matrix(0.05,0,0,0.05,35.95,0)" xlink:href="#ag"/><use transform="matrix(0.05,0,0,0.05,41.900000000000006,0)" xlink:href="#af"/><use transform="matrix(0.05,0,0,0.05,46.900000000000006,0)" xlink:href="#ae"/></g><path d="M206 0h-36l-40-164L89 0H53L-1-190h32L70-26l43-164h34l41 164 42-164h31" id="aN"/><g id="X"><use transform="matrix(0.05,0,0,0.05,0,0)" xlink:href="#aN"/><use transform="matrix(0.05,0,0,0.05,12.950000000000001,0)" xlink:href="#ag"/><use transform="matrix(0.05,0,0,0.05,18.900000000000002,0)" xlink:href="#am"/><use transform="matrix(0.05,0,0,0.05,22.85,0)" xlink:href="#af"/><use transform="matrix(0.05,0,0,0.05,27.85,0)" xlink:href="#am"/><use transform="matrix(0.05,0,0,0.05,31.8,0)" xlink:href="#an"/><use transform="matrix(0.05,0,0,0.05,41.8,0)" xlink:href="#ao"/></g><g id="Y"><use transform="matrix(0.05,0,0,0.05,0,0)" xlink:href="#af"/><use transform="matrix(0.05,0,0,0.05,5,0)" xlink:href="#aC"/><use transform="matrix(0.05,0,0,0.05,15,0)" xlink:href="#ak"/><use transform="matrix(0.05,0,0,0.05,25,0)" xlink:href="#ac"/></g><g id="Z"><use transform="matrix(0.05,0,0,0.05,0,0)" xlink:href="#af"/><use transform="matrix(0.05,0,0,0.05,5,0)" xlink:href="#aq"/></g><g id="aa"><use transform="matrix(0.05,0,0,0.05,0,0)" xlink:href="#at"/><use transform="matrix(0.05,0,0,0.05,5,0)" xlink:href="#am"/><use transform="matrix(0.05,0,0,0.05,8.95,0)" xlink:href="#ap"/><use transform="matrix(0.05,0,0,0.05,12.899999999999999,0)" xlink:href="#ak"/><use transform="matrix(0.05,0,0,0.05,22.9,0)" xlink:href="#ae"/><use transform="matrix(0.05,0,0,0.05,31.899999999999995,0)" xlink:href="#ay"/><use transform="matrix(0.05,0,0,0.05,40.9,0)" xlink:href="#ae"/><use transform="matrix(0.05,0,0,0.05,49.9,0)" xlink:href="#af"/><use transform="matrix(0.05,0,0,0.05,54.900000000000006,0)" xlink:href="#ak"/><use transform="matrix(0.05,0,0,0.05,64.9,0)" xlink:href="#ac"/></g></defs></g></svg>